<svg xmlns="http://www.w3.org/2000/svg" viewBox="0 0 230.36 307.11"><g id="Layer_2" data-name="Layer 2"><g id="Layer_1-2" data-name="Layer 1"><path d="M105.58,0h18c2.65,1.17,5.55,1,8.32,1.47,17.6,3.25,32.62,11.36,45.4,23.78,18,17.49,27.29,38.73,27.37,63.89,0,7-4.43,12.3-11.43,13a68.17,68.17,0,0,1-16.15-.1,12.38,12.38,0,0,1-10.46-10.46,43,43,0,0,1-.42-5.07,46.69,46.69,0,0,0-4.11-17.64,51.65,51.65,0,0,0-54.44-30C85,41.79,64.66,63,64.25,85.75c-.38,21.89-.14,43.78-.25,65.67,0,1.68.41,2.22,2.13,2.17,4.5-.12,9,0,13.5,0q65.07,0,130.15,0c12.13,0,20.48,7.73,20.51,19.41q.17,57.42,0,114.85c0,6.66-2.93,11.86-8.19,15.88-2.23,1.71-5,2.08-7.39,3.41H14.4c-.06-.79-.76-.85-1.28-1.05-8.26-3.12-13-9.44-13.07-18.14q-.12-57.57,0-115.14a18.66,18.66,0,0,1,4.71-12.6c4.75-5.48,10.93-7.06,17.81-6.58,2.41.16,3.19-.41,3.17-3-.13-19.79-.07-39.58-.08-59.37A101.19,101.19,0,0,1,27.4,71.26C30.88,53.81,39.27,39,51.78,26.5,63.35,14.92,76.87,6.67,92.91,2.68,97.12,1.64,101.54,1.74,105.58,0Z"/></g></g></svg>