<svg xmlns="http://www.w3.org/2000/svg" viewBox="0 0 251.25 307.09"><g id="Layer_2" data-name="Layer 2"><g id="Layer_1-2" data-name="Layer 1"><path d="M233.59,307.09H16.45c-.1-.46-.47-.53-.86-.67C4.65,302.39,0,295.82,0,284.34q0-61.29,0-122.58c0-7,2.24-12.81,7.67-17.4,5.12-4.34,11.14-5,17.44-4.68,2.18.13,2.85-.45,2.83-2.76-.13-12.69-.11-25.38,0-38.06a102.58,102.58,0,0,1,4.54-31A95.66,95.66,0,0,1,56.05,29.55C71.36,14,89.49,4,111.33,1.1c1.19-.16,2.6.1,3.49-1.1h20.4c.22.84.93.55,1.46.61A94.6,94.6,0,0,1,164.58,8c14.12,6.26,25.92,15.63,35.89,27.31C213.88,51,221.58,69.18,222.92,89.88c.94,14.47.26,29,.43,43.44.07,6.22,0,6.22,6.07,6.32,13.14.21,21.76,8.69,21.78,21.81.07,41.15,0,82.31.05,123.46,0,6-1.68,11.36-5.88,15.82C242.13,304.16,238,305.78,233.59,307.09ZM125.49,139.65v0c17.79,0,35.59,0,53.38,0,1.79,0,2.63-.2,2.62-2.35-.12-13.69.13-27.39-.12-41.08-.64-34.64-33-60.3-66.94-53.26a55.5,55.5,0,0,0-44.58,53.9c-.16,13.29,0,26.59-.1,39.88,0,2.37.6,3,3,2.95C90.3,139.6,107.9,139.65,125.49,139.65Z"/></g></g></svg>